<?xml version="1.0" encoding="utf-8"?>
<!-- Generator: Adobe Illustrator 14.0.0, SVG Export Plug-In . SVG Version: 6.00 Build 43363)  -->
<!DOCTYPE svg PUBLIC "-//W3C//DTD SVG 1.1//EN" "http://www.w3.org/Graphics/SVG/1.1/DTD/svg11.dtd">
<svg version="1.1"
	 id="svg2" xmlns:inkscape="http://www.inkscape.org/namespaces/inkscape" xmlns:sodipodi="http://sodipodi.sourceforge.net/DTD/sodipodi-0.dtd" sodipodi:docname="f_logo_RGB-Black_1024.eps" xmlns:svg="http://www.w3.org/2000/svg"
	 xmlns="http://www.w3.org/2000/svg" xmlns:xlink="http://www.w3.org/1999/xlink" x="0px" y="0px" width="1365.333px"
	 height="1365.333px" viewBox="0 0 1365.333 1365.333" enable-background="new 0 0 1365.333 1365.333" xml:space="preserve">
<sodipodi:namedview  id="namedview4" bordercolor="#000000" pagecolor="#ffffff" inkscape:showpageshadow="2" borderopacity="0.25" inkscape:deskcolor="#d1d1d1" inkscape:pageopacity="0.0" inkscape:pagecheckerboard="0">
	</sodipodi:namedview>
<g id="g8" transform="matrix(1.3333333,0,0,-1.3333333,0,1365.3333)" inkscape:label="ink_ext_XXXXXX" inkscape:groupmode="layer">
	<g id="g10" transform="scale(0.1)">
		<path id="path12" fill="#100F0D" d="M10239.996,5119.998c0,2827.702-2292.291,5120.002-5119.993,5120.002S0,7947.699,0,5119.998
			C0,2564.464,1872.309,446.299,4320.001,62.203v3577.793H3020.003v1480.001h1299.998V6248
			c0,1283.2,764.377,1992.001,1933.905,1992.001C6814.077,8240.002,7400,8140,7400,8140V6880h-645.615
			c-636.035,0-834.39-394.673-834.39-799.57v-960.432H7340l-226.992-1480.001H5919.995V62.203
			C8367.69,446.299,10239.996,2564.464,10239.996,5119.998"/>
		<path id="path14" fill="#FFFFFF" d="M7113.008,3639.996L7340,5119.998H5919.995v960.432c0,404.897,198.354,799.57,834.39,799.57
			H7400v1260c0,0-585.923,100.002-1146.094,100.002c-1169.528,0-1933.905-708.802-1933.905-1992.001V5119.998H3020.003V3639.996
			h1299.998V62.203c260.669-40.898,527.842-62.197,800.002-62.197c272.164,0,539.323,21.299,799.992,62.197v3577.793H7113.008"/>
	</g>
</g>
</svg>
