<?xml version="1.0" encoding="utf-8"?>
<!-- Generator: Adobe Illustrator 14.0.0, SVG Export Plug-In . SVG Version: 6.00 Build 43363)  -->
<!DOCTYPE svg PUBLIC "-//W3C//DTD SVG 1.1//EN" "http://www.w3.org/Graphics/SVG/1.1/DTD/svg11.dtd">
<svg version="1.1" id="Layer_2" xmlns="http://www.w3.org/2000/svg" xmlns:xlink="http://www.w3.org/1999/xlink" x="0px" y="0px"
	 width="1365.333px" height="1365.333px" viewBox="0 0 1365.333 1365.333" enable-background="new 0 0 1365.333 1365.333"
	 xml:space="preserve">
<path d="M402.699,9.645c-72.057,3.398-121.262,14.901-164.277,31.804c-44.522,17.347-82.256,40.636-119.8,78.312
	c-37.545,37.681-60.667,75.443-77.894,120.032C24.055,282.9,12.76,332.149,9.577,404.248c-3.183,72.095-3.888,95.267-3.535,279.169
	c0.353,183.905,1.164,206.96,4.658,279.208c3.441,72.039,14.9,121.231,31.803,164.263c17.378,44.516,40.631,82.242,78.327,119.795
	c37.694,37.564,75.428,60.629,120.124,77.885c43.07,16.643,92.33,27.996,164.41,31.15c72.084,3.156,95.287,3.886,279.137,3.533
	c183.852-0.351,206.997-1.163,279.229-4.595c72.232-3.42,121.165-14.964,164.213-31.783c44.515-17.421,82.261-40.638,119.795-78.345
	c37.532-37.707,60.64-75.494,77.854-120.108c16.688-43.072,28.025-92.33,31.15-164.358c3.154-72.286,3.9-95.362,3.554-279.238
	c-0.357-183.882-1.184-206.931-4.604-279.148c-3.431-72.222-14.901-121.267-31.795-164.323
	c-17.398-44.516-40.627-82.212-78.312-119.797c-37.674-37.583-75.495-60.679-120.092-77.852
	c-43.098-16.674-92.332-28.038-164.417-31.152c-72.083-3.115-95.28-3.916-279.197-3.563C497.955,5.34,474.931,6.126,402.699,9.645
	 M410.612,1233.886c-66.032-2.869-101.882-13.841-125.775-23.025c-31.638-12.191-54.178-26.929-77.988-50.504
	c-23.81-23.585-38.439-46.202-50.79-77.772c-9.279-23.892-20.452-59.704-23.541-125.734c-3.359-71.363-4.063-92.788-4.458-273.591
	c-0.392-180.803,0.299-202.205,3.429-273.599c2.815-65.968,13.855-101.862,23.024-125.74c12.191-31.681,26.87-54.18,50.507-77.975
	c23.634-23.8,46.187-38.451,77.784-50.806c23.864-9.323,59.676-20.4,125.678-23.541c71.416-3.384,92.816-4.063,273.594-4.456
	c180.777-0.393,202.227,0.286,273.675,3.431c65.973,2.869,101.883,13.799,125.733,23.023c31.652,12.192,54.178,26.833,77.977,50.506
	c23.794,23.672,38.462,46.145,50.815,77.812c9.332,23.794,20.411,59.593,23.524,125.637c3.4,71.416,4.176,92.831,4.497,273.595
	c0.327,180.761-0.311,202.227-3.435,273.592c-2.89,66.03-13.836,101.894-23.03,125.816c-12.187,31.619-26.888,54.174-50.535,77.96
	c-23.646,23.783-46.17,38.436-77.78,50.79c-23.843,9.302-59.69,20.41-125.638,23.555c-71.421,3.36-92.822,4.063-273.666,4.451
	c-180.842,0.4-202.172-0.337-273.593-3.424 M962.689,320.177c0.072,44.885,36.517,81.202,81.396,81.13
	c44.885-0.077,81.207-36.521,81.131-81.405c-0.071-44.879-36.517-81.202-81.395-81.126c-0.011,0-0.021,0-0.032,0
	C998.92,238.863,962.612,275.303,962.689,320.177 M335.452,682.793c0.38,192.064,156.351,347.403,348.375,347.035
	c192.015-0.367,347.464-156.328,347.098-348.383c-0.369-192.065-156.382-347.443-348.424-347.061
	C490.456,334.763,335.087,490.77,335.452,682.793 M457.431,682.553c-0.246-124.672,100.621-225.941,225.294-226.191
	c124.677-0.245,225.941,100.622,226.186,225.3c0.252,124.678-100.615,225.941-225.287,226.187
	c-124.662,0.265-225.932-100.582-226.192-225.236C457.431,682.589,457.431,682.568,457.431,682.553"/>
</svg>
