<svg xmlns="http://www.w3.org/2000/svg" width="70" height="70"><path d="M52.804 30.758c0-12.046-9.797-21.846-21.847-21.846-12.043 0-21.846 9.8-21.846 21.846 0 12.047 9.803 21.851 21.846 21.851 12.05-.001 21.847-9.804 21.847-21.851zM30.957 47.145c-9.035 0-16.382-7.348-16.382-16.387 0-9.035 7.348-16.382 16.382-16.382 9.036 0 16.389 7.348 16.389 16.382 0 9.039-7.354 16.387-16.389 16.387z"/><path fill="none" d="M52.766 46.247a26.625 26.625 0 004.955-15.489c0-14.756-12.008-26.761-26.764-26.761S4.193 16.002 4.193 30.758c0 14.76 12.008 26.766 26.764 26.766a26.601 26.601 0 0015.727-5.128 27.132 27.132 0 006.082-6.149zM9.11 30.758c0-12.046 9.803-21.846 21.846-21.846 12.05 0 21.847 9.8 21.847 21.846 0 12.047-9.797 21.851-21.847 21.851C18.913 52.608 9.11 42.805 9.11 30.758z"/><path d="M40.333 46.887l6.103-6.1 18.836 18.84-6.103 6.101z"/></svg>