<?xml version="1.0" encoding="utf-8"?>
<!-- Svg Vector Icons : http://www.onlinewebfonts.com/icon -->
<!DOCTYPE svg PUBLIC "-//W3C//DTD SVG 1.1//EN" "http://www.w3.org/Graphics/SVG/1.1/DTD/svg11.dtd">
<svg version="1.1" xmlns="http://www.w3.org/2000/svg" xmlns:xlink="http://www.w3.org/1999/xlink" x="0px" y="0px" viewBox="0 0 256 256" enable-background="new 0 0 256 256" xml:space="preserve">
<metadata> Svg Vector Icons : http://www.onlinewebfonts.com/icon </metadata>
<g><g><path fill="#000000" d="M171.7,72.8c0,1.7-0.1,3.4-0.2,5.2c0,0.6-0.4,3.6-0.1,1c-0.1,1-0.3,2-0.5,2.9c-0.7,3.4-1.6,6.7-2.9,9.9c-0.1,0.4-0.3,0.8-0.5,1.1c0.9-2.1,0.3-0.7,0.1-0.3c-0.3,0.7-0.7,1.5-1.1,2.2c-0.8,1.6-1.7,3.1-2.6,4.6c-0.8,1.4-1.8,2.7-2.7,4c-0.9,1.2,1.1-1.4,0.2-0.2c-0.2,0.3-0.5,0.6-0.8,0.9c-0.6,0.7-1.2,1.4-1.9,2.1c-1.1,1.2-2.2,2.3-3.4,3.4c-0.6,0.6-1.2,1.1-1.8,1.6c-0.5,0.4-3,2.4-1,0.9c-2.7,2-5.6,3.9-8.6,5.4c-0.7,0.4-1.5,0.7-2.2,1.1c-0.4,0.2-0.7,0.3-1.1,0.5c2.1-0.9,0.7-0.3,0.3-0.1c-1.7,0.7-3.3,1.3-5.1,1.8c-1.6,0.5-3.2,0.9-4.9,1.2c-0.8,0.2-1.7,0.3-2.5,0.4c-0.5,0.1-2.1,0.3,0.3,0c-0.6,0.1-1.1,0.1-1.7,0.2c-3.6,0.4-7.2,0.3-10.8,0c-0.6,0-3.6-0.4-1-0.1c-0.8-0.1-1.7-0.3-2.5-0.4c-1.8-0.3-3.5-0.7-5.3-1.3c-1.6-0.5-3.2-1-4.7-1.6c-0.4-0.1-0.8-0.3-1.2-0.5c-1.4-0.6,1.7,0.7,0.3,0.1c-0.9-0.4-1.7-0.8-2.6-1.2c-3-1.5-5.9-3.3-8.6-5.3c-1.2-0.9,1.4,1.1,0.2,0.2c-0.3-0.2-0.6-0.5-0.9-0.8c-0.6-0.5-1.2-1-1.8-1.6c-1.3-1.2-2.6-2.4-3.7-3.7c-1.1-1.2-2.1-2.4-3.2-3.7c1.6,2-0.2-0.3-0.5-0.8c-0.6-0.8-1.1-1.6-1.6-2.4c-0.9-1.4-1.7-2.8-2.4-4.2c-0.4-0.7-0.7-1.5-1.1-2.2c-0.2-0.4-0.3-0.7-0.5-1.1c-0.5-1.2,0.7,1.8,0-0.1c-1.3-3.2-2.3-6.6-3-9.9c-0.2-0.8-0.3-1.7-0.4-2.5c-0.1-0.5-0.3-2.1,0,0.3c0-0.4-0.1-0.8-0.1-1.3c-0.2-1.9-0.3-3.7-0.3-5.6c0-1.7,0-3.5,0.2-5.2c0.1-0.8,0.2-1.7,0.3-2.6c-0.3,2.4-0.1,0.8,0,0.3c0.1-0.6,0.2-1.1,0.3-1.7c0.6-3.4,1.6-6.7,2.8-10c0.1-0.4,0.3-0.8,0.5-1.2c0.6-1.4-0.7,1.7-0.1,0.3c0.3-0.7,0.7-1.5,1-2.2c0.8-1.6,1.6-3.1,2.6-4.6c0.8-1.4,1.8-2.7,2.7-4c0.3-0.4,1.2-1.6-0.2,0.2c0.2-0.3,0.5-0.6,0.7-0.9c0.6-0.7,1.2-1.4,1.8-2.1c2.2-2.5,4.7-4.8,7.4-6.9c-2,1.6,0.3-0.2,0.8-0.5c0.6-0.5,1.3-0.9,2-1.3c1.5-1,3-1.8,4.6-2.6c0.7-0.4,1.5-0.7,2.2-1.1c0.4-0.2,0.7-0.3,1.1-0.5c1.4-0.6-1.7,0.7-0.3,0.1c1.7-0.7,3.3-1.3,5.1-1.8c1.6-0.5,3.2-0.9,4.8-1.2c0.8-0.2,1.7-0.3,2.5-0.5c0.4-0.1,0.8-0.1,1.3-0.2c-2.5,0.4-0.4,0.1,0.1,0c3.6-0.4,7.2-0.4,10.8-0.1c0.8,0.1,1.7,0.2,2.6,0.3c-2.6-0.3,0.3,0.1,1,0.2c1.8,0.3,3.5,0.7,5.3,1.2c1.6,0.4,3.2,1,4.7,1.5c0.6,0.2,3.3,1.3,0.9,0.3c0.9,0.4,1.7,0.8,2.6,1.2c3,1.5,5.9,3.3,8.7,5.3c0.4,0.3,1.6,1.2-0.2-0.2c0.3,0.2,0.6,0.5,0.9,0.7c0.6,0.5,1.2,1,1.9,1.6c1.3,1.2,2.6,2.4,3.8,3.7c1.1,1.2,2.2,2.4,3.2,3.7c0.9,1.2-1.1-1.4-0.2-0.2c0.2,0.3,0.5,0.7,0.7,1c0.6,0.8,1.1,1.6,1.6,2.3c0.9,1.4,1.7,2.8,2.5,4.2c0.4,0.7,0.7,1.4,1.1,2.2c0.2,0.4,0.3,0.7,0.5,1.1c0.8,1.9-0.4-1.1,0.1,0.1c1.4,3.3,2.4,6.8,3.1,10.3c0.2,0.8,0.3,1.7,0.4,2.5c0.1,0.5,0.3,2.1,0-0.3c0.1,0.6,0.1,1.1,0.2,1.7C171.7,69.1,171.7,70.9,171.7,72.8c0,4,3.4,7.4,7.4,7.4c4,0,7.4-3.4,7.4-7.4c0-15.6-5.7-30.3-15.6-42.3c-9.3-11.2-22.9-19-37.2-21.6c-15.4-2.8-31.4-0.2-45,7.7c-13.1,7.6-22.9,19.8-28.3,34c-5.3,14-5.2,30.4,0,44.4c5.3,14.2,15.2,26.2,28.3,34c13.6,8,29.6,10.4,45,7.7c14.3-2.5,27.8-10.5,37.2-21.6c10-11.8,15.6-26.8,15.6-42.3c0-4-3.4-7.4-7.4-7.4C175.1,65.4,171.8,68.8,171.7,72.8z"/><path fill="#000000" d="M24.8,234.6c0-2.3,0.1-4.6,0.2-6.8c0.1-1.1,0.2-2.3,0.3-3.4c0-0.6,0.1-1.1,0.2-1.7c0-0.4,0.4-2.9,0.1-0.8c0.6-4.7,1.7-9.3,2.9-13.9c0.6-2.2,1.3-4.4,2.1-6.5c0.4-1.1,0.8-2.1,1.2-3.2c0.2-0.5,0.4-1.1,0.6-1.6c-0.8,2,0.1-0.3,0.3-0.7c1.8-4,3.9-8,6.2-11.8c1.1-1.8,2.3-3.6,3.5-5.3c0.6-0.9,1.2-1.7,1.9-2.6c0.3-0.4,0.6-0.8,1-1.3c-1.3,1.6,0.2-0.3,0.5-0.6c2.8-3.4,5.8-6.7,9-9.8c1.5-1.5,3.1-2.9,4.7-4.2c0.8-0.7,1.6-1.3,2.4-2c0.3-0.2,1.7-1.3,0.2-0.1c0.6-0.4,1.1-0.8,1.7-1.3c3.5-2.6,7.2-5,11.1-7.1c1.7-0.9,3.4-1.8,5.2-2.7c0.8-0.4,1.6-0.8,2.5-1.2c0.5-0.2,1-0.5,1.5-0.7c1.8-0.8-1.5,0.6,0.3-0.1c3.8-1.6,7.8-2.9,11.8-4c4-1.1,8.1-1.9,12.2-2.6c0.8-0.1,0.7-0.1-0.3,0c0.6-0.1,1.1-0.1,1.7-0.2c1.1-0.1,2.2-0.2,3.4-0.3c2.3-0.2,4.6-0.3,6.9-0.3c4.3-0.1,8.5,0.1,12.7,0.6c0.5,0,3.5,0.4,1.5,0.2c1.2,0.2,2.3,0.3,3.4,0.5c2.3,0.4,4.6,0.9,6.8,1.4c4.1,1,8.2,2.3,12.2,3.8c0.9,0.3,1.8,0.7,2.7,1.1c1.8,0.7-1.4-0.6,0.3,0.1c0.5,0.2,1.1,0.5,1.6,0.7c2.1,0.9,4.1,2,6.2,3.1c3.6,1.9,8,0.9,10.1-2.6c2-3.4,0.9-8.2-2.7-10.1c-17.8-9.6-38.1-14.3-58.3-13.3c-19.4,0.9-38.6,7-54.9,17.5c-15.2,9.8-27.9,23.2-36.9,38.9C15,196.1,10,215.3,10,234.6c0,4,3.4,7.4,7.4,7.4C21.5,242,24.8,238.6,24.8,234.6L24.8,234.6z"/><path fill="#000000" d="M142,170.9c12.6,0,25.1,0,37.7,0c17.7,0,35.5,0,53.2,0c1.9,0,3.8,0,5.7,0c4,0,7.4-3.4,7.4-7.4s-3.4-7.4-7.4-7.4c-12.6,0-25.1,0-37.7,0c-17.7,0-35.5,0-53.2,0c-1.9,0-3.8,0-5.7,0c-4,0-7.4,3.4-7.4,7.4S138,170.9,142,170.9L142,170.9z"/><path fill="#000000" d="M142,209.5c12.6,0,25.1,0,37.7,0c17.7,0,35.5,0,53.2,0c1.9,0,3.8,0,5.7,0c4,0,7.4-3.4,7.4-7.4s-3.4-7.4-7.4-7.4c-12.6,0-25.1,0-37.7,0c-17.7,0-35.5,0-53.2,0c-1.9,0-3.8,0-5.7,0c-4,0-7.4,3.4-7.4,7.4S138,209.5,142,209.5L142,209.5z"/><path fill="#000000" d="M142,248.1c12.6,0,25.1,0,37.7,0c17.7,0,35.5,0,53.2,0c1.9,0,3.8,0,5.7,0c4,0,7.4-3.4,7.4-7.4c0-4-3.4-7.4-7.4-7.4c-12.6,0-25.1,0-37.7,0c-17.7,0-35.5,0-53.2,0c-1.9,0-3.8,0-5.7,0c-4,0-7.4,3.4-7.4,7.4C134.6,244.8,138,248.1,142,248.1L142,248.1z"/></g></g>
</svg>