<?xml version="1.0" encoding="utf-8"?>
<!-- Generator: Adobe Illustrator 14.0.0, SVG Export Plug-In . SVG Version: 6.00 Build 43363)  -->
<!DOCTYPE svg PUBLIC "-//W3C//DTD SVG 1.1//EN" "http://www.w3.org/Graphics/SVG/1.1/DTD/svg11.dtd">
<svg version="1.1" id="Layer_5" xmlns="http://www.w3.org/2000/svg" xmlns:xlink="http://www.w3.org/1999/xlink" x="0px" y="0px"
	 width="1365.333px" height="1365.333px" viewBox="0 0 1365.333 1365.333" enable-background="new 0 0 1365.333 1365.333"
	 xml:space="preserve">
<g transform="matrix(0.46 0 0 0.46 249.26 249.26)">
	<path vector-effect="non-scaling-stroke" d="M940.136-532.453c-814.869,0-1473.309,659.656-1473.309,1473.303
		c0,624.487,388.028,1158.038,936.126,1372.67c-13.33-116.415-24.246-295.882,4.841-423.196
		c26.686-115.205,172.2-732.418,172.2-732.418s-43.657-88.527-43.657-218.266c0-204.932,118.827-357.717,266.77-357.717
		c126.113,0,186.746,94.578,186.746,207.349c0,126.106-80.032,315.28-122.476,491.112
		c-35.159,146.709,73.971,266.767,218.272,266.767c261.918,0,463.201-276.473,463.201-674.201
		c0-352.871-253.431-599.027-616-599.027c-419.544,0-665.713,314.064-665.713,639.024c0,126.119,48.513,261.933,109.141,335.901
		c12.116,14.559,13.343,27.891,9.7,42.442c-10.914,46.081-36.384,146.718-41.228,167.34c-6.071,26.677-21.83,32.745-49.727,19.408
		C113.139,1390.723-0.834,1121.527-0.834,905.694c0-464.434,337.087-891.269,973.718-891.269
		c510.496,0,908.224,363.783,908.224,851.241c0,508.082-320.113,916.727-763.944,916.727c-149.138,0-289.8-77.615-337.086-169.756
		c0,0-73.97,281.309-92.168,350.425c-32.745,128.541-122.472,288.604-183.1,386.829c138.242,42.442,283.755,65.485,436.54,65.485
		c813.658,0,1473.301-659.651,1473.301-1473.307C2413.437,127.203,1753.781-532.453,940.136-532.453z"/>
</g>
</svg>
