<?xml version="1.0" encoding="utf-8"?>
<!-- Generator: Adobe Illustrator 14.0.0, SVG Export Plug-In . SVG Version: 6.00 Build 43363)  -->
<!DOCTYPE svg PUBLIC "-//W3C//DTD SVG 1.1//EN" "http://www.w3.org/Graphics/SVG/1.1/DTD/svg11.dtd">
<svg version="1.1"
	 id="svg2" xmlns:inkscape="http://www.inkscape.org/namespaces/inkscape" xmlns:sodipodi="http://sodipodi.sourceforge.net/DTD/sodipodi-0.dtd" sodipodi:docname="vecteezy_tik-tok-flat-icon-template-black-color-editable-tik-tok_6693634.eps" xmlns:svg="http://www.w3.org/2000/svg"
	 xmlns="http://www.w3.org/2000/svg" xmlns:xlink="http://www.w3.org/1999/xlink" x="0px" y="0px" width="1400px" height="1400px"
	 viewBox="2669.833 2613.833 1400 1400" enable-background="new 2669.833 2613.833 1400 1400" xml:space="preserve">
<sodipodi:namedview  id="namedview4" bordercolor="#000000" pagecolor="#ffffff" inkscape:showpageshadow="2" borderopacity="0.25" inkscape:deskcolor="#d1d1d1" inkscape:pageopacity="0.0" inkscape:pagecheckerboard="0">
	</sodipodi:namedview>
<g id="g8" transform="matrix(1.3333333,0,0,-1.3333333,0,6666.6667)" inkscape:label="ink_ext_XXXXXX" inkscape:groupmode="layer">
	<g id="g10" transform="scale(0.1)">
		<path id="path12" fill="#100F0D" d="M26478.373,26562.018l-0.109-166.992h-0.229v-2244.764
			c0-535.188-210.812-1044.178-589.195-1422.584c-378.414-378.375-887.426-589.078-1422.449-589.078
			c-535.154,0-1044.07,210.703-1422.455,589.078c-378.371,378.406-589.215,887.396-589.215,1422.584
			c0,535.158,210.844,1044.049,589.215,1422.422c378.385,378.418,887.301,589.215,1422.455,589.215h373.291v-1057.514h-373.291
			c-254.064,0-495.092-99.826-674.771-279.518c-179.617-179.643-279.375-420.572-279.375-674.605
			c0-254.055,99.758-495.088,279.375-674.729c179.68-179.547,420.709-279.479,674.771-279.479
			c254.031,0,495.062,99.932,674.74,279.479c179.539,179.641,279.369,420.578,279.369,672.502v4033.648h1053.127l52.756-97.627
			c163.961-303.889,385.115-591.967,659.4-804.555c212.08-164.41,452.064-280.408,717.238-326.902l187.455-32.871l-201.137-1019.527
			l-180.168,32.197c-214.512,38.342-425.18,103.398-622.434,196.391C26860.359,26235.566,26650.383,26379.684,26478.373,26562.018
			L26478.373,26562.018z M25272.682,30349.064c-2865.828,0-5188.932-2323.094-5188.932-5188.902
			c0-2865.719,2323.104-5188.91,5188.932-5188.91c2865.703,0,5188.793,2323.191,5188.793,5188.91
			C30461.475,28025.971,28138.385,30349.064,25272.682,30349.064L25272.682,30349.064"/>
	</g>
</g>
</svg>
