<?xml version="1.0" encoding="utf-8"?>
<!-- Generator: Adobe Illustrator 14.0.0, SVG Export Plug-In . SVG Version: 6.00 Build 43363)  -->
<!DOCTYPE svg PUBLIC "-//W3C//DTD SVG 1.1//EN" "http://www.w3.org/Graphics/SVG/1.1/DTD/svg11.dtd">
<svg version="1.1"
	 id="svg2" xmlns:inkscape="http://www.inkscape.org/namespaces/inkscape" xmlns:sodipodi="http://sodipodi.sourceforge.net/DTD/sodipodi-0.dtd" sodipodi:docname="yt_icon_mono_light.eps" xmlns:svg="http://www.w3.org/2000/svg"
	 xmlns="http://www.w3.org/2000/svg" xmlns:xlink="http://www.w3.org/1999/xlink" x="0px" y="0px" width="1373.166px"
	 height="1372px" viewBox="-630.167 -360.833 1373.166 1372" enable-background="new -630.167 -360.833 1373.166 1372"
	 xml:space="preserve">
<sodipodi:namedview  id="namedview4" bordercolor="#000000" pagecolor="#ffffff" inkscape:showpageshadow="2" borderopacity="0.25" inkscape:deskcolor="#d1d1d1" inkscape:pageopacity="0.0" inkscape:pagecheckerboard="0">
	</sodipodi:namedview>
<g id="g8" transform="matrix(1.3333333,0,0,-1.3333333,0,165.33333)" inkscape:label="ink_ext_XXXXXX" inkscape:groupmode="layer">
	<g id="g10" transform="scale(0.1)">
		<path id="path12" fill="#252323" d="M5318.044,1341.369c-118,444.247-465.549,794.103-906.98,912.828
			c-799.995,215.804-4007.989,215.804-4007.989,215.804s-3207.961,0-4007.993-215.804
			c-441.39-118.726-789.027-468.581-906.98-912.828c-214.354-805.203-214.354-2485.232-214.354-2485.232
			s0-1679.993,214.354-2485.284c117.953-444.199,465.59-794.048,906.98-912.824c800.032-215.757,4007.993-215.757,4007.993-215.757
			s3207.993,0,4007.989,215.757c441.431,118.777,788.979,468.625,906.98,912.824c214.351,805.291,214.351,2485.284,214.351,2485.284
			S5532.395,536.167,5318.044,1341.369"/>
		<path id="path14" fill="#FFFFFF" d="M-646.112-2669.183l2681.236,1525.232L-646.112,381.457V-2669.183z"/>
	</g>
</g>
</svg>
