<?xml version="1.0" encoding="UTF-8"?>
<svg xmlns="http://www.w3.org/2000/svg" version="1.1" viewBox="0 0 107.8 107.8">
  <defs>
    <style>
      .cls-1 {
        fill: #fff;
      }
    </style>
  </defs>
  <!-- Generator: Adobe Illustrator 28.7.9, SVG Export Plug-In . SVG Version: 1.2.0 Build 218)  -->
  <g>
    <g id="_레이어_1" data-name="레이어_1">
      <g id="_레이어_1-2" data-name="_레이어_1">
        <path class="cls-1" d="M60.8,100.7H18.8c-8.2,0-14.8-6.7-14.8-14.8V22c0-8.2,6.7-14.8,14.8-14.8h58.7c8.2,0,14.8,6.7,14.8,14.8v13.1c0,1.7-1.4,3.1-3.1,3.1s-3.1-1.4-3.1-3.1v-13.1c0-4.7-3.9-8.6-8.6-8.6H18.8c-4.7,0-8.6,3.9-8.6,8.6v63.8c0,4.7,3.9,8.6,8.6,8.6h42c1.7,0,3.1,1.4,3.1,3.1s-1.4,3.1-3.1,3.1Z"/>
        <path class="cls-1" d="M69.8,35H22.9c-1.7,0-3.1-1.4-3.1-3.1s1.4-3.1,3.1-3.1h46.9c1.7,0,3.1,1.4,3.1,3.1s-1.4,3.1-3.1,3.1ZM53.5,56.9h-30.7c-1.7,0-3.1-1.4-3.1-3.1s1.4-3.1,3.1-3.1h30.7c1.7,0,3.1,1.4,3.1,3.1s-1.4,3.1-3.1,3.1ZM43.5,78.8h-20.7c-1.7,0-3.1-1.4-3.1-3.1s1.4-3.1,3.1-3.1h20.7c1.7,0,3.1,1.4,3.1,3.1s-1.4,3.1-3.1,3.1ZM59.7,75.2l6.4,7.1c.2.3.1.7-.3.8l-9.4,2c-.4,0-.7-.3-.5-.6l2.9-9.1c0-.4.5-.5.8-.2h0ZM92.4,59.7l-22.5,20.3c-.5.5-1.5.3-2.1-.3l-5.3-5.8c-.6-.7-.7-1.6-.1-2.1l22.5-20.3c.5-.5,1.5-.3,2.1.3l5.3,5.8c.6.7.7,1.6.1,2.1h0ZM103.1,50.2l-5.9,5.3c-.9.8-2.1.9-2.7.2l-5.3-5.8c-.6-.7-.4-1.9.5-2.7l5.9-5.3c.9-.8,2.1-.9,2.7-.2l5.3,5.8c.6.7.4,1.9-.5,2.7h0Z"/>
      </g>
    </g>
  </g>
</svg>