<?xml version="1.0" encoding="UTF-8"?>
<svg xmlns="http://www.w3.org/2000/svg" version="1.1" viewBox="0 0 75.8 63.3">
  <defs>
    <style>
      .cls-1 {
        fill: #fff;
      }
    </style>
  </defs>
  <!-- Generator: Adobe Illustrator 28.7.9, SVG Export Plug-In . SVG Version: 1.2.0 Build 218)  -->
  <g>
    <g id="_레이어_1" data-name="레이어_1">
      <path class="cls-1" d="M18.9,57c-2.6,0-4.9-.9-6.7-2.8s-2.8-4.1-2.8-6.7H3.1V12.6c0-1.7.6-3.2,1.9-4.5,1.2-1.2,2.7-1.9,4.5-1.9h44.3v12.7h9.5l9.5,12.7v15.8h-6.3c0,2.6-.9,4.9-2.8,6.7s-4.1,2.8-6.7,2.8-4.9-.9-6.7-2.8-2.8-4.1-2.8-6.7h-19c0,2.6-.9,4.9-2.8,6.7s-4.1,2.8-6.7,2.8ZM18.9,50.6c.9,0,1.6-.3,2.3-.9.6-.6.9-1.4.9-2.3s-.3-1.6-.9-2.3-1.4-.9-2.3-.9-1.6.3-2.3.9-.9,1.4-.9,2.3.3,1.6.9,2.3c.6.6,1.4.9,2.3.9ZM9.4,41.1h2.5c.9-.9,1.9-1.7,3.1-2.3s2.5-.9,3.9-.9,2.7.3,3.9.9,2.2,1.3,3.1,2.3h21.5V12.6H9.4v28.5ZM56.9,50.6c.9,0,1.6-.3,2.3-.9.6-.6.9-1.4.9-2.3s-.3-1.6-.9-2.3-1.4-.9-2.3-.9-1.6.3-2.3.9-.9,1.4-.9,2.3.3,1.6.9,2.3c.6.6,1.4.9,2.3.9ZM53.7,34.8h13.5l-7.1-9.5h-6.3v9.5Z"/>
    </g>
  </g>
</svg>