<?xml version="1.0" encoding="UTF-8"?>
<svg xmlns="http://www.w3.org/2000/svg" version="1.1" viewBox="0 0 24 24">
  <defs>
    <style>
      .cls-1 {
        fill: #9a9a9a;
      }
    </style>
  </defs>
  <!-- Generator: Adobe Illustrator 28.7.9, SVG Export Plug-In . SVG Version: 1.2.0 Build 218)  -->
  <g>
    <g id="_레이어_1" data-name="레이어_1">
      <path class="cls-1" d="M6,20c-.8,0-1.5-.3-2.1-.9s-.9-1.3-.9-2.1H1V6c0-.6.2-1,.6-1.4.4-.4.9-.6,1.4-.6h14v4h3l3,4v5h-2c0,.8-.3,1.5-.9,2.1s-1.3.9-2.1.9-1.5-.3-2.1-.9-.9-1.3-.9-2.1h-6c0,.8-.3,1.5-.9,2.1s-1.3.9-2.1.9ZM6,18c.3,0,.5,0,.7-.3.2-.2.3-.4.3-.7s0-.5-.3-.7-.4-.3-.7-.3-.5,0-.7.3-.3.4-.3.7,0,.5.3.7c.2.2.4.3.7.3ZM3,15h.8c.3-.3.6-.5,1-.7s.8-.3,1.2-.3.9,0,1.2.3.7.4,1,.7h6.8V6H3v9ZM18,18c.3,0,.5,0,.7-.3.2-.2.3-.4.3-.7s0-.5-.3-.7-.4-.3-.7-.3-.5,0-.7.3-.3.4-.3.7,0,.5.3.7c.2.2.4.3.7.3ZM17,13h4.3l-2.3-3h-2v3Z"/>
    </g>
  </g>
</svg>