<svg xmlns="http://www.w3.org/2000/svg" height="40" viewBox="0 -960 960 960" width="40"><path d="M545.75-430.666q-47.917 0-81.5-33.584-33.584-33.583-33.584-81.666 0-48.084 33.645-81.417 33.644-33.333 81.708-33.333 47.647 0 81.147 33.49 33.5 33.49 33.5 81.333 0 47.843-33.277 81.51-33.278 33.667-81.639 33.667ZM242.665-297.332q-26.124 0-44.729-18.605-18.604-18.604-18.604-44.728v-370.002q0-26.125 18.604-44.729Q216.541-794 242.665-794h606.669q26.125 0 44.729 18.604t18.604 44.729v370.002q0 26.124-18.604 44.728-18.604 18.605-44.729 18.605H242.665Zm91.334-63.333H758q0-38.501 26.786-65.251 26.785-26.75 64.548-26.75v-186.001q-38 0-64.667-26.75T758-730.667H333.999q0 38.5-26.785 65.25-26.786 26.75-64.549 26.75v186.001q38.001 0 64.667 26.75 26.667 26.75 26.667 65.251ZM794-166H110.666q-26.125 0-44.729-18.604t-18.604-44.729v-446h63.333v446H794V-166ZM242.665-360.665v-370.002 370.002Z"/></svg>