<?xml version="1.0" encoding="UTF-8"?>
<svg xmlns="http://www.w3.org/2000/svg" version="1.1" viewBox="0 0 55.3 55.3">
  <defs>
    <style>
      .cls-1 {
        fill: #fff;
      }
    </style>
  </defs>
  <!-- Generator: Adobe Illustrator 28.7.9, SVG Export Plug-In . SVG Version: 1.2.0 Build 218)  -->
  <g>
    <g id="_레이어_1" data-name="레이어_1">
      <path class="cls-1" d="M31.5,30.5c-1.8,0-3.4-.6-4.7-1.9-1.3-1.3-1.9-2.9-1.9-4.7s.6-3.4,1.9-4.7c1.3-1.3,2.9-1.9,4.7-1.9s3.4.6,4.7,1.9c1.3,1.3,1.9,2.9,1.9,4.7s-.6,3.4-1.9,4.7c-1.3,1.3-2.9,1.9-4.7,1.9ZM13.9,38.2c-1,0-1.9-.4-2.6-1.1-.7-.7-1.1-1.6-1.1-2.6V13.2c0-1,.4-1.9,1.1-2.6.7-.7,1.6-1.1,2.6-1.1h35.1c1,0,1.9.4,2.6,1.1s1.1,1.6,1.1,2.6v21.4c0,1-.4,1.9-1.1,2.6-.7.7-1.6,1.1-2.6,1.1,0,0-35.1,0-35.1,0ZM19.2,34.5h24.5c0-1.5.5-2.7,1.5-3.8,1-1,2.3-1.5,3.7-1.5v-10.7c-1.5,0-2.7-.5-3.7-1.5s-1.5-2.3-1.5-3.8h-24.5c0,1.5-.5,2.7-1.5,3.8-1,1-2.3,1.5-3.7,1.5v10.7c1.5,0,2.7.5,3.7,1.5,1,1,1.5,2.3,1.5,3.8ZM45.8,45.8H6.3c-1,0-1.9-.4-2.6-1.1-.7-.7-1.1-1.6-1.1-2.6v-25.8h3.7v25.8h39.5v3.7ZM13.9,34.5V13.2s0,21.4,0,21.4Z"/>
    </g>
  </g>
</svg>