<?xml version="1.0" encoding="UTF-8"?>
<svg xmlns="http://www.w3.org/2000/svg" version="1.1" viewBox="0 0 40 40">
  <defs>
    <style>
      .cls-1 {
        fill: #9a9a9a;
      }
    </style>
  </defs>
  <!-- Generator: Adobe Illustrator 28.7.9, SVG Export Plug-In . SVG Version: 1.2.0 Build 218)  -->
  <g>
    <g id="_레이어_1" data-name="레이어_1">
      <path class="cls-1" d="M22.7,22.1c-1.3,0-2.5-.5-3.4-1.4-.9-.9-1.4-2.1-1.4-3.4s.5-2.5,1.4-3.4c.9-.9,2.1-1.4,3.4-1.4s2.5.5,3.4,1.4c.9.9,1.4,2.1,1.4,3.4s-.5,2.5-1.4,3.4c-.9.9-2.1,1.4-3.4,1.4ZM10.1,27.6c-.7,0-1.3-.3-1.9-.8-.5-.5-.8-1.1-.8-1.9v-15.4c0-.7.3-1.3.8-1.9.5-.5,1.1-.8,1.9-.8h25.3c.7,0,1.3.3,1.9.8s.8,1.1.8,1.9v15.4c0,.7-.3,1.3-.8,1.9-.5.5-1.1.8-1.9.8,0,0-25.3,0-25.3,0ZM13.9,25h17.7c0-1.1.4-2,1.1-2.7.7-.7,1.6-1.1,2.7-1.1v-7.8c-1.1,0-2-.4-2.7-1.1s-1.1-1.6-1.1-2.7H13.9c0,1.1-.4,2-1.1,2.7-.7.7-1.6,1.1-2.7,1.1v7.8c1.1,0,2,.4,2.7,1.1.7.7,1.1,1.6,1.1,2.7ZM33.1,33.1H4.6c-.7,0-1.3-.3-1.9-.8-.5-.5-.8-1.1-.8-1.9V11.9h2.6v18.6h28.5v2.6ZM10.1,25v-15.4s0,15.4,0,15.4Z"/>
    </g>
  </g>
</svg>