<?xml version="1.0" encoding="UTF-8"?>
<svg xmlns="http://www.w3.org/2000/svg" version="1.1" viewBox="0 0 56.6 56.6">
  <defs>
    <style>
      .cls-1 {
        fill: #9a9a9a;
      }
    </style>
  </defs>
  <!-- Generator: Adobe Illustrator 28.7.9, SVG Export Plug-In . SVG Version: 1.2.0 Build 218)  -->
  <g>
    <g id="_레이어_1" data-name="레이어_1">
      <path class="cls-1" d="M28.3,28.1c-3.5,0-6.3-1.1-8.6-3.4-2.3-2.3-3.4-5.1-3.4-8.6s1.1-6.3,3.4-8.6c2.3-2.3,5.1-3.4,8.6-3.4s6.3,1.1,8.6,3.4c2.3,2.3,3.4,5.1,3.4,8.6s-1.1,6.3-3.4,8.6c-2.3,2.3-5.1,3.4-8.6,3.4ZM3.3,52.9v-7.6c0-1.9.5-3.6,1.4-5,1-1.4,2.2-2.5,3.8-3.2,3.4-1.6,6.8-2.8,10-3.6,3.2-.8,6.5-1.2,9.8-1.2s6.5.4,9.8,1.2,6.6,2,10,3.6c1.6.7,2.9,1.8,3.8,3.2,1,1.4,1.4,3.1,1.4,5v7.6H3.3ZM8.4,47.8h39.9v-2.6c0-.8-.2-1.5-.7-2.2-.4-.7-1-1.2-1.6-1.5-3.2-1.5-6.2-2.6-9-3.3-2.8-.6-5.7-1-8.6-1s-5.9.3-8.7,1c-2.8.6-5.8,1.7-9,3.3-.7.3-1.2.8-1.6,1.5-.4.7-.6,1.4-.6,2.2,0,0,0,2.6,0,2.6ZM28.3,23.1c2,0,3.6-.7,4.9-2s2-3,2-4.9-.7-3.6-2-4.9c-1.3-1.3-3-2-4.9-2s-3.6.7-4.9,2c-1.3,1.3-2,3-2,4.9s.7,3.6,2,4.9c1.3,1.3,3,2,4.9,2Z"/>
    </g>
  </g>
</svg>