<?xml version="1.0" encoding="UTF-8"?>
<svg xmlns="http://www.w3.org/2000/svg" version="1.1" viewBox="0 0 57.6 57.6">
  <defs>
    <style>
      .cls-1 {
        fill: #fff;
      }
    </style>
  </defs>
  <!-- Generator: Adobe Illustrator 28.7.9, SVG Export Plug-In . SVG Version: 1.2.0 Build 218)  -->
  <g>
    <g id="_레이어_1" data-name="레이어_1">
      <g id="_레이어_1-2" data-name="_레이어_1">
        <path class="cls-1" d="M28.8,28.6c-3.4,0-6.3-1.1-8.6-3.4-2.3-2.3-3.4-5.2-3.4-8.6s1.1-6.3,3.4-8.6c2.3-2.3,5.2-3.4,8.6-3.4s6.3,1.1,8.6,3.4,3.4,5.2,3.4,8.6-1.1,6.3-3.4,8.6c-2.3,2.3-5.2,3.4-8.6,3.4ZM3.8,53.4v-7.6c0-1.9.6-3.6,1.5-5,1-1.3,2.3-2.5,3.8-3.2,3.4-1.5,6.7-2.7,9.9-3.6,3.2-.8,6.5-1.1,9.7-1.1s6.5.4,9.7,1.1,6.5,1.9,9.9,3.6,2.9,1.7,3.8,3.2c1,1.3,1.5,3.1,1.5,5v7.6H3.8ZM9,48.3h39.9v-2.7c0-.8-.2-1.5-.6-2.1-.4-.8-1-1.1-1.7-1.5-3.2-1.5-6.3-2.7-9-3.2-2.9-.6-5.7-1-8.6-1s-5.9.4-8.8,1-5.7,1.7-9,3.2c-.6.4-1.1.8-1.7,1.5-.4.8-.6,1.3-.6,2.1,0,0,0,2.7,0,2.7ZM28.8,23.7c1.9,0,3.6-.6,5-1.9s1.9-2.9,1.9-5-.6-3.6-1.9-5c-1.3-1.3-2.9-1.9-5-1.9s-3.6.6-5,1.9-1.9,2.9-1.9,5,.6,3.6,1.9,5,2.9,1.9,5,1.9Z"/>
      </g>
    </g>
  </g>
</svg>