<svg xmlns="http://www.w3.org/2000/svg" height="24" viewBox="0 -960 960 960" width="24"><path d="M480.181-329.846q70.973 0 120.473-49.681t49.5-120.654q0-70.973-49.681-120.473t-120.654-49.5q-70.973 0-120.473 49.681t-49.5 120.654q0 70.973 49.681 120.473t120.654 49.5ZM479.882-390Q434-390 402-422.118q-32-32.117-32-78Q370-546 402.118-578q32.117-32 78-32Q526-610 558-577.882q32 32.117 32 78Q590-454 557.882-422q-32.117 32-78 32Zm.228 180q-143.956 0-260.879-79.231Q102.307-368.461 47.077-500q55.23-131.539 172.044-210.769Q335.934-790 479.89-790q143.956 0 260.879 79.231Q857.693-631.539 912.923-500q-55.23 131.539-172.044 210.769Q624.066-210 480.11-210ZM480-500Zm0 224q115 0 211.872-60.582Q788.745-397.164 840-500q-51.255-102.836-148.128-163.418Q595-724 480-724q-115 0-211.872 60.582Q171.255-602.836 120-500q51.255 102.836 148.128 163.418Q365-276 480-276Z"/></svg>