<svg xmlns="http://www.w3.org/2000/svg" height="24" viewBox="0 -960 960 960" width="24"><path d="M637.846-436.154 589-485q8-58.385-32.192-95.192Q516.615-617 465-609l-48.846-48.846q8.077-4.154 27.038-8.231 18.962-4.077 36.808-4.077 72.154 0 121.154 49t49 121.154q0 17.846-3.077 34.577-3.077 16.731-9.231 29.269Zm129.462 127.923L719-355q38-29 69-64.5t52-80.5q-51-103-146.5-163.5T480-724q-29 0-58.5 4T366-708l-52.231-52.231q37.846-15.154 80.423-22.462Q436.769-790 480-790q144.231 0 261.731 80.077T912.923-500q-22.461 55.231-59.346 103.654-36.884 48.423-86.269 88.115Zm29.615 237.77L629.231-237.692q-26.539 11.769-64.885 19.731Q526-210 480-210q-145 0-262.731-80.077Q99.539-370.154 47.077-500q22.307-54 57.961-100.769 35.654-46.769 78.962-81.154l-113.539-115 46.308-46.308 726.462 726.462-46.308 46.308ZM232.307-634.615q-31.384 24.461-62.807 59.307Q138.077-540.461 120-500q51 103 146.5 163.5T480-276q26.615 0 55.269-4.731 28.654-4.73 38.346-10.577L528.385-339q-6.462 4.308-21.385 6.731-14.923 2.423-27 2.423-72.154 0-121.154-49t-49-121.154q0-11.308 2.423-25.346 2.423-14.039 6.731-23.039l-86.693-86.23ZM543-532Zm-139.539 68.539Z"/></svg>